<svg width="135" height="140" viewBox="0 0 135 140" fill="none" xmlns="http://www.w3.org/2000/svg">
    <g filter="url(#filter0_f_237_30)">
        <path d="M61.6737 34.2358C65.2972 32.2234 69.7028 32.2234 73.3263 34.2358L96.4003 47.0507C100.211 49.1669 102.574 53.1828 102.574 57.5414V82.3764C102.574 86.735 100.211 90.7509 96.4003 92.8671L73.3263 105.682C69.7028 107.694 65.2972 107.694 61.6737 105.682L38.5997 92.8671C34.7893 90.7509 32.426 86.735 32.426 82.3764V57.5414C32.426 53.1828 34.7893 49.1669 38.5997 47.0507L61.6737 34.2358Z" fill="#117700"/>
        <path d="M61.9164 34.6729C65.389 32.7443 69.611 32.7443 73.0835 34.6729L96.1576 47.4878C99.8092 49.5158 102.074 53.3644 102.074 57.5414V82.3764C102.074 86.5534 99.8092 90.402 96.1576 92.43L73.0835 105.245C69.611 107.173 65.389 107.173 61.9164 105.245L38.8424 92.43C35.1908 90.402 32.926 86.5534 32.926 82.3764V57.5414C32.926 53.3644 35.1908 49.5158 38.8424 47.4878L61.9164 34.6729Z" stroke="white"/>
    </g>
    <defs>
        <filter id="filter0_f_237_30" x="0.426025" y="0.72644" width="134.148" height="138.465" filterUnits="userSpaceOnUse" color-interpolation-filters="sRGB">
            <feFlood flood-opacity="0" result="BackgroundImageFix"/>
            <feBlend mode="normal" in="SourceGraphic" in2="BackgroundImageFix" result="shape"/>
            <feGaussianBlur stdDeviation="16" result="effect1_foregroundBlur_237_30"/>
        </filter>
    </defs>
</svg>


